<svg xmlns="http://www.w3.org/2000/svg" xmlns:xlink="http://www.w3.org/1999/xlink" viewBox="0 0 277 247" preserveAspectRatio="xMidYMid" style="display: block; shape-rendering: auto; background: transparent; --darkreader-inline-bgcolor: var(--darkreader-background-fdfdfd, #000000); --darkreader-inline-bgimage: none;" width="277" height="247" data-darkreader-inline-bgcolor="" data-darkreader-inline-bgimage=""><style type="text/css">
  .ld-text text {
    text-anchor: middle;
    dominant-baseline: middle;
    font-size: 75px;
    opacity: 0;
    user-select: none;
    pointer-events: none;
  }
</style>
<g style="transform-origin:138.5px 123.5px;transform:scale(1)" class="ld-text">
<g transform="translate(138.5,123.5)">
  <g transform="scale(0.9375) translate(0,0)"><g class="path" style="opacity: 1; animation: 3.7037s linear -2.22222s infinite forwards animate-8kcoc70ansk; transform-box: view-box; transform-origin: -132.92px -2.87px 0px;"><path d="M13.04 9.29L13.04 9.29L13.04 0.25Q13.04-1.91 13.44-3.59Q13.84-5.27 14.48-6.55Q15.12-7.83 15.92-8.75Q16.72-9.67 17.52-10.27Q18.32-10.87 19.04-11.27L19.04-11.27L17.28-15.19Q17.20-15.11 16.28-14.71Q15.36-14.31 14.08-13.39Q12.80-12.47 11.52-10.75Q10.24-9.03 9.36-6.35Q8.48-3.67 8.48 0.25L8.48 0.25L8.48 9.29Q8.48 10.97 8.24 12.57Q8 14.17 7.60 15.77L7.60 15.77Q7.12 17.29 5.96 18.81Q4.80 20.33 2.88 21.77L2.88 21.77L2 22.41L2.88 23.05Q4.80 24.49 5.96 25.97Q7.12 27.45 7.60 29.05L7.60 29.05Q8 30.57 8.24 32.17Q8.48 33.77 8.48 35.45L8.48 35.45L8.48 44.57Q8.48 48.41 9.32 51.09Q10.16 53.77 11.44 55.49Q12.72 57.21 14 58.21Q15.28 59.21 16.24 59.61Q17.20 60.01 17.28 60.09L17.28 60.09L19.12 56.01Q18.40 55.61 17.56 55.01Q16.72 54.41 15.92 53.49Q15.12 52.57 14.48 51.33Q13.84 50.09 13.44 48.41Q13.04 46.73 13.04 44.57L13.04 44.57L13.04 35.45Q13.04 33.77 12.84 32.13Q12.64 30.49 12.24 28.81L12.24 28.81Q11.44 25.53 7.68 22.41L7.68 22.41Q9.52 20.81 10.68 19.21Q11.84 17.61 12.24 16.01L12.24 16.01Q12.64 14.33 12.84 12.65Q13.04 10.97 13.04 9.29" style="fill: rgb(0, 0, 0);" transform="translate(-143.479,-25.324)"></path></g><g class="path" style="opacity: 1; animation: 3.7037s linear -2s infinite forwards animate-8kcoc70ansk; transform-box: view-box; transform-origin: -104.84px 13.35px 0px;"><path d="M53.44 55.77L53.44 55.77L53.44 10.65L48.88 10.65L48.88 14.41Q47.12 12.97 45.24 11.97Q43.36 10.97 41.40 10.45Q39.44 9.93 37.52 9.85L37.52 9.85Q33.12 9.61 30.08 11.17Q27.04 12.73 25.44 15.73Q23.84 18.73 23.84 22.97L23.84 22.97L23.84 36.57Q23.84 43.85 27.36 47.73Q30.88 51.61 37.60 51.61L37.60 51.61Q39.44 51.61 41.16 51.17Q42.88 50.73 44.40 49.93Q45.92 49.13 47.08 48.05Q48.24 46.97 48.88 45.77L48.88 45.77L48.88 55.69Q48.88 57.29 48.52 58.61Q48.16 59.93 47.52 60.97Q46.88 62.01 45.88 62.77Q44.88 63.53 43.52 64.09L43.52 64.09L44.80 67.53Q47.84 66.57 49.76 65.05Q51.68 63.53 52.56 61.25Q53.44 58.97 53.44 55.77 zM48.88 19.21L48.88 19.21L48.88 36.73Q48.88 39.29 48.04 41.29Q47.20 43.29 45.68 44.65Q44.16 46.01 42.16 46.73Q40.16 47.45 37.84 47.45L37.84 47.45Q34.80 47.45 32.68 46.33Q30.56 45.21 29.44 42.97Q28.32 40.73 28.32 37.29L28.32 37.29L28.32 23.21Q28.32 20.49 29.20 18.61Q30.08 16.73 31.56 15.65Q33.04 14.57 34.84 14.13Q36.64 13.69 38.48 13.85L38.48 13.85Q39.76 13.93 41.20 14.33Q42.64 14.73 44.12 15.41Q45.60 16.09 46.84 17.05Q48.08 18.01 48.88 19.21" style="fill: rgb(10, 0, 255);" transform="translate(-143.479,-25.324)"></path></g><g class="path" style="opacity: 1; animation: 3.7037s linear -1.77778s infinite forwards animate-8kcoc70ansk; transform-box: view-box; transform-origin: -81.36px 5.29px 0px;"><path d="M59.84 10.57L59.84 50.65L64.40 50.65L64.40 10.57L59.84 10.57" style="fill: rgb(0, 210, 202);" transform="translate(-143.479,-25.324)"></path></g><g class="path" style="opacity: 1; animation: 3.7037s linear -1.55556s infinite forwards animate-8kcoc70ansk; transform-box: view-box; transform-origin: -81.32px -28.79px 0px;"><path d="M62.16-6.15L62.16-6.15Q61.12-6.15 60.28-5.35Q59.44-4.55 59.44-3.43L59.44-3.43Q59.44-2.39 60.28-1.59Q61.12-0.79 62.16-0.79L62.16-0.79Q63.28-0.79 64.08-1.59Q64.88-2.39 64.88-3.43L64.88-3.43Q64.88-4.55 64.08-5.35Q63.28-6.15 62.16-6.15" style="fill: rgb(114, 0, 100);" transform="translate(-143.479,-25.324)"></path></g><g class="path" style="opacity: 1; animation: 3.7037s linear -1.33333s infinite forwards animate-8kcoc70ansk; transform-box: view-box; transform-origin: -65.36px -2.16px 0px;"><path d="M75.52 40.09L75.52 40.09L75.52 14.81L83.28 14.81L85.20 10.65L75.52 10.65L75.52-5.35L71.04-5.35L71.04 40.09Q71.04 44.73 73.04 47.53Q75.04 50.33 79.44 51.69L79.44 51.69L80.80 48.25Q79.04 47.61 77.88 46.53Q76.72 45.45 76.12 43.81Q75.52 42.17 75.52 40.09" style="fill: rgb(219, 80, 0);" transform="translate(-143.479,-25.324)"></path></g><g class="path" style="opacity: 1; animation: 3.7037s linear -1.11111s infinite forwards animate-8kcoc70ansk; transform-box: view-box; transform-origin: -45.4px -2.87px 0px;"><path d="M91.36-15.19L91.36-15.19L89.60-11.27Q90.32-10.87 91.12-10.27Q91.92-9.67 92.72-8.75Q93.52-7.83 94.20-6.55Q94.88-5.27 95.28-3.59Q95.68-1.91 95.68 0.25L95.68 0.25L95.68 9.29Q95.68 11.53 96 13.77Q96.32 16.01 97.44 18.17Q98.56 20.33 100.96 22.41L100.96 22.41Q98.56 24.49 97.44 26.65Q96.32 28.81 96 31.01Q95.68 33.21 95.68 35.45L95.68 35.45L95.68 44.57Q95.68 46.73 95.28 48.37Q94.88 50.01 94.20 51.29Q93.52 52.57 92.68 53.49Q91.84 54.41 91.04 55.01Q90.24 55.61 89.52 56.01L89.52 56.01L91.28 60.09Q91.44 60.01 92.36 59.61Q93.28 59.21 94.56 58.21Q95.84 57.21 97.12 55.49Q98.40 53.77 99.28 51.09Q100.16 48.41 100.16 44.57L100.16 44.57L100.16 35.45Q100.16 33.21 100.48 31.13Q100.80 29.05 102 27.01Q103.20 24.97 105.76 23.05L105.76 23.05L106.64 22.41L105.76 21.77Q103.20 19.77 102 17.77Q100.80 15.77 100.48 13.65Q100.16 11.53 100.16 9.29L100.16 9.29L100.16 0.25Q100.16-3.59 99.32-6.27Q98.48-8.95 97.20-10.71Q95.92-12.47 94.60-13.43Q93.28-14.39 92.36-14.75Q91.44-15.11 91.36-15.19" style="fill: rgb(0, 0, 0);" transform="translate(-143.479,-25.324)"></path></g><g class="path" style="opacity: 1; animation: 3.7037s linear -0.888889s infinite forwards animate-8kcoc70ansk; transform-box: view-box; transform-origin: -17.8px -2.68px 0px;"><path d="M139.04-1.11L139.04-5.35L112.32-5.35L112.32 50.65L116.88 50.65L116.88 22.09L130.32 22.09L132.16 17.69L116.88 17.69L116.88-1.11L139.04-1.11" style="fill: rgb(10, 0, 255);" transform="translate(-143.479,-25.324)"></path></g><g class="path" style="opacity: 1; animation: 3.7037s linear -0.666667s infinite forwards animate-8kcoc70ansk; transform-box: view-box; transform-origin: 8.44px 5.25px 0px;"><path d="M166.72 35.85L166.72 35.85L166.72 25.37Q166.72 18.01 162.96 13.85Q159.20 9.69 152.08 9.69L152.08 9.69Q147.36 9.69 144 11.49Q140.64 13.29 138.88 16.77Q137.12 20.25 137.12 25.37L137.12 25.37L137.12 35.85Q137.12 40.17 138.80 43.69Q140.48 47.21 143.88 49.33Q147.28 51.45 152.24 51.45L152.24 51.45Q159.52 51.45 163.12 47.17Q166.72 42.89 166.72 35.85 zM162.24 25.37L162.24 25.37L162.24 36.65Q162.24 39.93 161.16 42.37Q160.08 44.81 157.84 46.13Q155.60 47.45 152.24 47.45L152.24 47.45Q149.04 47.45 146.64 46.09Q144.24 44.73 142.92 42.29Q141.60 39.85 141.60 36.65L141.60 36.65L141.60 25.37Q141.60 21.53 142.80 18.93Q144 16.33 146.36 15.01Q148.72 13.69 152.24 13.69L152.24 13.69Q155.76 13.69 157.96 15.01Q160.16 16.33 161.20 18.93Q162.24 21.53 162.24 25.37" style="fill: rgb(0, 210, 202);" transform="translate(-143.479,-25.324)"></path></g><g class="path" style="opacity: 1; animation: 3.7037s linear -0.444444s infinite forwards animate-8kcoc70ansk; transform-box: view-box; transform-origin: 40.6px 4.83px 0px;"><path d="M194.64 13.77L194.64 13.77L194.96 9.93Q194.96 9.93 193.88 9.77Q192.80 9.61 191.36 9.69L191.36 9.69Q187.04 9.93 183.88 10.89Q180.72 11.85 177.76 13.21L177.76 13.21L177.76 10.57L173.20 10.57L173.20 50.65L177.76 50.65L177.76 17.93Q178.88 17.21 180.48 16.45Q182.08 15.69 183.92 15.09Q185.76 14.49 187.68 14.13Q189.60 13.77 191.28 13.69L191.28 13.69Q192.64 13.61 193.64 13.69Q194.64 13.77 194.64 13.77" style="fill: rgb(114, 0, 100);" transform="translate(-143.479,-25.324)"></path></g><g class="path" style="opacity: 1; animation: 3.7037s linear -0.222222s infinite forwards animate-8kcoc70ansk; transform-box: view-box; transform-origin: 72.36px 5.69px 0px;"><path d="M226.16 46.81L226.16 46.81L226.16 50.65L230.64 50.65L230.64 10.57L226.16 10.57L226.16 36.81Q226.16 38.97 225.36 40.81Q224.56 42.65 223.08 44.09Q221.60 45.53 219.60 46.33Q217.60 47.13 215.20 47.13L215.20 47.13Q212.16 47.13 210 46.13Q207.84 45.13 206.72 42.89Q205.60 40.65 205.60 36.97L205.60 36.97L205.60 10.57L201.04 10.57L201.04 38.09Q201.04 40.81 201.64 42.97Q202.24 45.13 203.40 46.73Q204.56 48.33 206.28 49.37Q208 50.41 210.20 50.93Q212.40 51.45 215.04 51.45L215.04 51.45Q217.04 51.45 219.12 50.93Q221.20 50.41 223.04 49.37Q224.88 48.33 226.16 46.81" style="fill: rgb(219, 80, 0);" transform="translate(-143.479,-25.324)"></path></g><g class="path" style="opacity: 1; animation: 3.7037s linear infinite forwards animate-8kcoc70ansk; transform-box: view-box; transform-origin: 119.76px 4.96px 0px;"><path d="M284.72 23.29L284.72 23.29L284.72 50.65L288.96 50.65L288.96 23.13Q288.96 19.93 288.16 17.45Q287.36 14.97 285.72 13.29Q284.08 11.61 281.64 10.77Q279.20 9.93 275.84 9.93L275.84 9.93Q273.60 9.93 271.36 10.49Q269.12 11.05 267.04 12.05Q264.96 13.05 263.20 14.41L263.20 14.41Q262.16 12.97 260.60 11.97Q259.04 10.97 257 10.45Q254.96 9.93 252.40 9.93L252.40 9.93Q250.40 9.93 248.64 10.37Q246.88 10.81 245.28 11.57Q243.68 12.33 242.08 13.37L242.08 13.37L242.08 10.65L237.52 10.65L237.52 50.65L242.08 50.65L242.08 16.81Q243.76 15.85 245.20 15.21Q246.64 14.57 248.20 14.25Q249.76 13.93 251.60 13.93L251.60 13.93Q253.52 13.93 255.28 14.37Q257.04 14.81 258.36 15.89Q259.68 16.97 260.48 18.77Q261.28 20.57 261.28 23.29L261.28 23.29L261.28 50.65L265.44 50.65L265.44 23.13Q265.44 21.45 265.24 19.97Q265.04 18.49 264.56 17.21L264.56 17.21Q266.48 16.01 268.28 15.29Q270.08 14.57 271.80 14.25Q273.52 13.93 275.04 13.93L275.04 13.93Q276.96 13.93 278.68 14.37Q280.40 14.81 281.76 15.89Q283.12 16.97 283.92 18.77Q284.72 20.57 284.72 23.29" style="fill: rgb(0, 0, 0);" transform="translate(-143.479,-25.324)"></path></g></g><text dy="0.35em" fill="#000000" font-family="Advent Pro" font-size="75">{git}Forum</text>
</g>
</g><style type="text/css">@keyframes animate-8kcoc70ansk { 0.00% {animation-timing-function: cubic-bezier(0.33,0.00,0.67,0.00);transform: translate(0.00px,0.00px) rotate(0.00deg) scale(1.00, 1.00) skew(0deg, 0.00deg) ;opacity: 1.00;}48.00% {transform: translate(0.00px,0.00px) rotate(0.00deg) ;opacity: 1.00;}50.00% {animation-timing-function: cubic-bezier(0.33,0.00,0.67,0.00);transform: translate(0.00px,0.00px) rotate(0.00deg) ;opacity: 0.00;}100.00% {animation-timing-function: cubic-bezier(0.33,0.00,0.67,0.00);transform: translate(0.00px,0.00px) rotate(0.00deg) ;opacity: 0.00;} }</style><!-- [ldio] generated by https://loading.io --></svg>